{
  "source": "C:\\Users\\Peter\\Desktop\\stuff\\MIUN\\quantitative_research\\video_compression\\videos\\BVI-HD\\BVI-HD_CDVL_videos\\ORIG\\BricksLeaves_1920x1080_60fps.mp4",
  "output": "C:\\Users\\Peter\\Desktop\\stuff\\MIUN\\quantitative_research\\video_compression\\compressed_videos\\BVI-HD\\vp9\\1\\BricksLeaves_1920x1080_60fps_vp9.webm",
  "codec": "vp9",
  "ok": "Input #0, mov,mp4,m4a,3gp,3g2,mj2, from 'C:\\Users\\Peter\\Desktop\\stuff\\MIUN\\quantitative_research\\video_compression\\videos\\BVI-HD\\BVI-HD_CDVL_videos\\ORIG\\BricksLeaves_1920x1080_60fps.mp4':\n  Metadata:\n    major_brand     : isom\n    minor_version   : 512\n    compatible_brands: isomiso2avc1mp41\n    encoder         : Lavf54.28.101\n  Duration: 00:00:05.00, start: 0.000000, bitrate: 524627 kb/s\n  Stream #0:0[0x1](und): Video: h264 (High 4:4:4 Predictive) (avc1 / 0x31637661), yuv420p(progressive), 1920x1080, 524622 kb/s, 60 fps, 60 tbr, 60 tbn (default)\n    Metadata:\n      handler_name    : VideoHandler\n      vendor_id       : [0][0][0][0]\n[out#0/webm @ 00000243ff9b9040] Codec AVOption b:a (set bitrate (in bits/s)) has not been used for any stream. The most likely reason is either wrong type (e.g. a video option with no video streams) or that it is a private option of some decoder which was not actually used for any stream.\nStream mapping:\n  Stream #0:0 -> #0:0 (h264 (native) -> vp9 (libvpx-vp9))\nPress [q] to stop, [?] for help\n[libvpx-vp9 @ 00000243819e0640] v1.15.2-100-g40561f514\nOutput #0, webm, to 'C:\\Users\\Peter\\Desktop\\stuff\\MIUN\\quantitative_research\\video_compression\\compressed_videos\\BVI-HD\\vp9\\1\\BricksLeaves_1920x1080_60fps_vp9.webm':\n  Metadata:\n    major_brand     : isom\n    minor_version   : 512\n    compatible_brands: isomiso2avc1mp41\n    encoder         : Lavf62.3.100\n  Stream #0:0(und): Video: vp9, yuv420p(tv, progressive), 1920x1080, q=2-31, 1000 kb/s, 60 fps, 1k tbn (default)\n    Metadata:\n      encoder         : Lavc62.11.100 libvpx-vp9\n      handler_name    : VideoHandler\n      vendor_id       : [0][0][0][0]\n    Side data:\n      cpb: bitrate max/min/avg: 0/0/0 buffer size: 1000000 vbv_delay: N/A\nframe=    0 fps=0.0 q=0.0 size=       0KiB time=N/A bitrate=N/A speed=N/A elapsed=0:00:00.53    \nframe=    4 fps=3.4 q=63.0 size=       1KiB time=00:00:00.06 bitrate=  76.0kbits/s speed=0.0559x elapsed=0:00:01.19    \nframe=   12 fps=7.0 q=62.0 size=       1KiB time=00:00:00.20 bitrate=  25.3kbits/s speed=0.116x elapsed=0:00:01.72    \nframe=   20 fps=8.9 q=63.0 size=       1KiB time=00:00:00.33 bitrate=  15.2kbits/s speed=0.149x elapsed=0:00:02.24    \nframe=   27 fps=9.7 q=63.0 size=       1KiB time=00:00:00.45 bitrate=  11.3kbits/s speed=0.161x elapsed=0:00:02.78    \nframe=   35 fps= 11 q=63.0 size=       1KiB time=00:00:00.58 bitrate=   8.7kbits/s speed=0.176x elapsed=0:00:03.31    \nframe=   40 fps= 10 q=63.0 size=       1KiB time=00:00:00.66 bitrate=   7.6kbits/s speed=0.174x elapsed=0:00:03.83    \nframe=   47 fps= 11 q=63.0 size=       1KiB time=00:00:00.78 bitrate=   6.5kbits/s speed=0.18x elapsed=0:00:04.35    \nframe=   52 fps= 11 q=63.0 size=       1KiB time=00:00:00.86 bitrate=   5.8kbits/s speed=0.178x elapsed=0:00:04.87    \nframe=   59 fps= 11 q=63.0 size=       1KiB time=00:00:00.98 bitrate=   5.1kbits/s speed=0.182x elapsed=0:00:05.40    \nframe=   64 fps= 11 q=63.0 size=       1KiB time=00:00:01.06 bitrate=   4.7kbits/s speed=0.18x elapsed=0:00:05.92    \nframe=   70 fps= 11 q=63.0 size=       1KiB time=00:00:01.16 bitrate=   4.3kbits/s speed=0.181x elapsed=0:00:06.44    \nframe=   75 fps= 11 q=63.0 size=       1KiB time=00:00:01.25 bitrate=   4.1kbits/s speed=0.179x elapsed=0:00:06.96    \nframe=   81 fps= 11 q=63.0 size=       1KiB time=00:00:01.35 bitrate=   3.8kbits/s speed=0.18x elapsed=0:00:07.48    \nframe=   86 fps= 11 q=63.0 size=       1KiB time=00:00:01.43 bitrate=   3.5kbits/s speed=0.179x elapsed=0:00:08.00    \nframe=   92 fps= 11 q=63.0 size=       1KiB time=00:00:01.53 bitrate=   3.3kbits/s speed=0.18x elapsed=0:00:08.53    \nframe=   96 fps= 11 q=63.0 size=       1KiB time=00:00:01.60 bitrate=   3.2kbits/s speed=0.177x elapsed=0:00:09.05    \nframe=  103 fps= 11 q=63.0 size=       1KiB time=00:00:01.71 bitrate=   2.9kbits/s speed=0.179x elapsed=0:00:09.59    \nframe=  108 fps= 11 q=63.0 size=       1KiB time=00:00:01.80 bitrate=   2.8kbits/s speed=0.178x elapsed=0:00:10.13    \nframe=  115 fps= 11 q=63.0 size=       1KiB time=00:00:01.91 bitrate=   2.6kbits/s speed=0.18x elapsed=0:00:10.67    \nframe=  120 fps= 11 q=63.0 size=       1KiB time=00:00:02.00 bitrate=   2.5kbits/s speed=0.179x elapsed=0:00:11.20    \nframe=  127 fps= 11 q=63.0 size=       1KiB time=00:00:02.11 bitrate=   2.4kbits/s speed=0.181x elapsed=0:00:11.72    \nframe=  130 fps= 11 q=63.0 size=     256KiB time=00:00:02.16 bitrate= 967.9kbits/s speed=0.177x elapsed=0:00:12.23    \nframe=  138 fps= 11 q=63.0 size=     256KiB time=00:00:02.30 bitrate= 911.8kbits/s speed=0.18x elapsed=0:00:12.76    \nframe=  143 fps= 11 q=63.0 size=     256KiB time=00:00:02.38 bitrate= 879.9kbits/s speed=0.179x elapsed=0:00:13.29    \nframe=  150 fps= 11 q=63.0 size=     256KiB time=00:00:02.50 bitrate= 838.9kbits/s speed=0.181x elapsed=0:00:13.84    \nframe=  156 fps= 11 q=63.0 size=     256KiB time=00:00:02.60 bitrate= 806.6kbits/s speed=0.181x elapsed=0:00:14.38    \nframe=  163 fps= 11 q=63.0 size=     256KiB time=00:00:02.71 bitrate= 772.0kbits/s speed=0.182x elapsed=0:00:14.91    \nframe=  168 fps= 11 q=63.0 size=     256KiB time=00:00:02.80 bitrate= 749.0kbits/s speed=0.181x elapsed=0:00:15.46    \nframe=  174 fps= 11 q=63.0 size=     256KiB time=00:00:02.90 bitrate= 723.2kbits/s speed=0.182x elapsed=0:00:15.97    \nframe=  179 fps= 11 q=63.0 size=     256KiB time=00:00:02.98 bitrate= 703.0kbits/s speed=0.181x elapsed=0:00:16.49    \nframe=  185 fps= 11 q=63.0 size=     256KiB time=00:00:03.08 bitrate= 680.2kbits/s speed=0.181x elapsed=0:00:17.03    \nframe=  190 fps= 11 q=63.0 size=     256KiB time=00:00:03.16 bitrate= 662.3kbits/s speed=0.18x elapsed=0:00:17.54    \nframe=  197 fps= 11 q=63.0 size=     256KiB time=00:00:03.28 bitrate= 638.7kbits/s speed=0.182x elapsed=0:00:18.07    \nframe=  202 fps= 11 q=63.0 size=     256KiB time=00:00:03.36 bitrate= 622.9kbits/s speed=0.181x elapsed=0:00:18.59    \nframe=  210 fps= 11 q=63.0 size=     256KiB time=00:00:03.50 bitrate= 599.2kbits/s speed=0.183x elapsed=0:00:19.11    \nframe=  215 fps= 11 q=63.0 size=     256KiB time=00:00:03.58 bitrate= 585.3kbits/s speed=0.183x elapsed=0:00:19.63    \nframe=  223 fps= 11 q=63.0 size=     256KiB time=00:00:03.71 bitrate= 564.3kbits/s speed=0.184x elapsed=0:00:20.16    \nframe=  228 fps= 11 q=63.0 size=     256KiB time=00:00:03.80 bitrate= 551.9kbits/s speed=0.184x elapsed=0:00:20.70    \nframe=  235 fps= 11 q=63.0 size=     256KiB time=00:00:03.91 bitrate= 535.4kbits/s speed=0.185x elapsed=0:00:21.22    \nframe=  240 fps= 11 q=63.0 size=     256KiB time=00:00:04.00 bitrate= 524.3kbits/s speed=0.184x elapsed=0:00:21.77    \nframe=  245 fps= 11 q=63.0 size=     256KiB time=00:00:04.08 bitrate= 513.6kbits/s speed=0.183x elapsed=0:00:22.30    \nframe=  251 fps= 11 q=63.0 size=     256KiB time=00:00:04.18 bitrate= 501.3kbits/s speed=0.183x elapsed=0:00:22.84    \nframe=  256 fps= 11 q=63.0 size=     256KiB time=00:00:04.26 bitrate= 491.5kbits/s speed=0.183x elapsed=0:00:23.36    \nframe=  259 fps= 11 q=63.0 size=     768KiB time=00:00:04.31 bitrate=1457.5kbits/s speed=0.181x elapsed=0:00:23.88    \nframe=  264 fps= 11 q=63.0 size=     768KiB time=00:00:04.40 bitrate=1429.9kbits/s speed=0.18x elapsed=0:00:24.44    \nframe=  268 fps= 11 q=63.0 size=     768KiB time=00:00:04.46 bitrate=1408.5kbits/s speed=0.179x elapsed=0:00:24.98    \nframe=  272 fps= 11 q=63.0 size=     768KiB time=00:00:04.53 bitrate=1387.8kbits/s speed=0.178x elapsed=0:00:25.51    \nframe=  276 fps= 11 q=63.0 size=     768KiB time=00:00:04.60 bitrate=1367.7kbits/s speed=0.177x elapsed=0:00:26.03    \nframe=  276 fps= 10 q=63.0 size=     768KiB time=00:00:04.60 bitrate=1367.7kbits/s speed=0.173x elapsed=0:00:26.55    \nframe=  276 fps= 10 q=63.0 size=     768KiB time=00:00:04.60 bitrate=1367.7kbits/s speed=0.17x elapsed=0:00:27.07    \nframe=  276 fps= 10 q=63.0 size=     768KiB time=00:00:04.60 bitrate=1367.7kbits/s speed=0.167x elapsed=0:00:27.60    \nframe=  276 fps=9.8 q=63.0 size=     768KiB time=00:00:04.60 bitrate=1367.7kbits/s speed=0.163x elapsed=0:00:28.13    \nframe=  276 fps=9.6 q=63.0 size=     768KiB time=00:00:04.60 bitrate=1367.7kbits/s speed=0.161x elapsed=0:00:28.64    \n[out#0/webm @ 00000243ff9b9040] video:1203KiB audio:0KiB subtitle:0KiB other streams:0KiB global headers:0KiB muxing overhead: 0.229912%\nframe=  300 fps= 10 q=63.0 Lsize=    1206KiB time=00:00:05.00 bitrate=1975.4kbits/s speed=0.172x elapsed=0:00:29.13    \n",
  "seconds": 29.45724058151245,
  "probe_out": {}
}